<svg width="45" height="24" viewBox="0 0 45 24" fill="none" xmlns="http://www.w3.org/2000/svg">
<g clip-path="url(#clip0_215_6375)">
<path fill-rule="evenodd" clip-rule="evenodd" d="M0 0H44.9171V1.81924H0V0ZM0 3.63843H44.9171V5.45767H0V3.63843ZM0 7.27223H44.9171V9.09605H0V7.27223ZM0 10.9107H44.9171V12.7299H0V10.9107ZM0 14.5491H44.9171V16.3683H0V14.5491ZM0 18.1829H44.9171V20.0021H0V18.1829ZM0 21.8213H44.9171V23.6406H0V21.8213Z" fill="#BD3D44"/>
<path fill-rule="evenodd" clip-rule="evenodd" d="M0 1.81924H44.9171V3.63843H0V1.81924ZM0 5.45762H44.9171V7.27223H0V5.45762ZM0 9.09147H44.9171V10.9107H0V9.09147ZM0 12.7299H44.9171V14.5491H0V12.7299ZM0 16.3683H44.9171V18.1875H0V16.3683ZM0 20.0021H44.9171V21.8214H0V20.0021Z" fill="white"/>
<path fill-rule="evenodd" clip-rule="evenodd" d="M0 0H17.9659V12.7299H0V0Z" fill="#192F5D"/>
<path fill-rule="evenodd" clip-rule="evenodd" d="M1.4953 0.5448L1.66153 1.048H2.18792L1.76308 1.35739L1.92473 1.86527L1.4953 1.5513L1.07051 1.86064L1.23211 1.35739L0.802734 1.048H1.33834L1.4953 0.5448ZM4.49194 0.5448L4.65353 1.048H5.18451L4.75509 1.35739L4.91673 1.86527L4.49194 1.5513L4.06252 1.86064L4.22411 1.35739L3.79932 1.048H4.32572L4.49194 0.5448ZM7.48395 0.5448L7.65017 1.04805H8.17194L7.74715 1.35744L7.90869 1.86532L7.47932 1.55135L7.05453 1.86069L7.21612 1.35744L6.7867 1.04805H7.31773L7.48395 0.5448ZM10.4806 0.5448L10.6421 1.04805H11.1732L10.7437 1.35744L10.91 1.86532L10.4805 1.55135L10.0512 1.86069L10.2174 1.35744L9.78797 1.04805H10.3144L10.4806 0.5448ZM13.4726 0.5448L13.6388 1.04805H14.1652L13.7404 1.35744L13.902 1.86532L13.4725 1.55135L13.0478 1.86069L13.2094 1.35744L12.7846 1.04805H13.311L13.4726 0.5448ZM16.4692 0.5448L16.6308 1.04805H17.1618L16.7324 1.35744L16.8986 1.86532L16.4692 1.55135L16.0398 1.86069L16.206 1.35744L15.7766 1.04805H16.3076L16.4692 0.5448ZM2.99594 1.81907L3.15753 2.32242H3.68851L3.25909 2.63172L3.4161 3.13507L3.00052 2.82567L2.57115 3.13502L2.72348 2.63177L2.30795 2.32237H2.83434L2.99594 1.81907ZM5.98795 1.81907L6.15417 2.32242H6.68051L6.25109 2.63172L6.41737 3.13507L5.9879 2.82567L5.55852 3.13502L5.72475 2.63177L5.29533 2.32237H5.8263L5.98795 1.81907ZM8.98458 1.81907L9.14613 2.32242H9.67715L9.24773 2.63172L9.40932 3.13507L8.98453 2.82567L8.55516 3.13502L8.71675 2.63182L8.29196 2.32242H8.81836L8.98458 1.81907ZM11.9766 1.81907L12.1428 2.32242H12.6692L12.2397 2.63172L12.406 3.13507L11.9765 2.82567L11.5517 3.13502L11.7134 2.63177L11.284 2.32237H11.8196L11.9766 1.81907ZM14.9732 1.81907L15.1348 2.32242H15.6658L15.2364 2.63172L15.398 3.13507L14.9732 2.82567L14.5438 3.13502L14.7054 2.63177L14.2806 2.32237H14.807L14.9732 1.81907ZM1.4953 3.08897L1.66153 3.60147H2.18792L1.76308 3.91082L1.92473 4.41412L1.4953 4.10014L1.07051 4.41412L1.23211 3.90619L0.802734 3.59689H1.33834L1.4953 3.08897ZM4.49194 3.08897L4.65353 3.59675H5.18451L4.75509 3.90609L4.91673 4.40944L4.49194 4.09541L4.06252 4.40939L4.22411 3.90151L3.79932 3.59216H4.32572L4.49194 3.08897ZM7.48395 3.08897L7.65017 3.59684H8.17194L7.74715 3.90619L7.90869 4.40954L7.47932 4.09551L7.05453 4.40949L7.21612 3.90161L6.7867 3.59226H7.31773L7.48395 3.08897ZM10.4806 3.08897L10.6421 3.59684H11.1732L10.7437 3.90619L10.91 4.40954L10.4805 4.09551L10.0512 4.40949L10.2174 3.90161L9.78797 3.59226H10.3144L10.4806 3.08897ZM13.4726 3.08897L13.6388 3.59684H14.1652L13.7404 3.90614L13.902 4.40949L13.4725 4.09546L13.0478 4.40944L13.2094 3.90156L12.7846 3.59221H13.311L13.4726 3.08897ZM16.4692 3.08897L16.6308 3.59684H17.1618L16.7324 3.90619L16.8986 4.40954L16.4692 4.09551L16.0398 4.40949L16.206 3.90161L15.7766 3.59226H16.3076L16.4692 3.08897ZM2.99594 4.36329L3.15753 4.86659H3.68851L3.25909 5.17589L3.42073 5.68381L2.99594 5.36984L2.56652 5.67918L2.72811 5.17593L2.30332 4.86659H2.82976L2.99594 4.36329ZM5.98795 4.36329L6.15417 4.86659H6.68051L6.25109 5.17589L6.41737 5.68381L5.9879 5.36984L5.55852 5.67918L5.72475 5.17593L5.29533 4.86659H5.8263L5.98795 4.36329ZM8.98458 4.36329L9.14613 4.86659H9.67715L9.24773 5.17589L9.40932 5.68381L8.98453 5.36984L8.55516 5.67918L8.71675 5.17593L8.29196 4.86659H8.81836L8.98458 4.36329ZM11.9766 4.36329L12.1428 4.86659H12.6692L12.2444 5.17589L12.406 5.68381L11.9765 5.36984L11.5517 5.67918L11.7134 5.17593L11.284 4.86659H11.8196L11.9766 4.36329ZM14.9732 4.36329L15.1348 4.86659H15.6658L15.2364 5.17589L15.398 5.68381L14.9732 5.36984L14.5438 5.67918L14.7054 5.17593L14.2806 4.86659H14.807L14.9732 4.36329ZM1.4953 5.63766L1.66153 6.14096H2.18792L1.76308 6.45026L1.92473 6.95819L1.4953 6.64421L1.07051 6.95356L1.23211 6.45031L0.802734 6.14096H1.33834L1.4953 5.63766ZM4.49194 5.63766L4.65353 6.14096H5.18451L4.75509 6.45026L4.91673 6.95361L4.49194 6.64421L4.06252 6.95356L4.22411 6.45031L3.79932 6.14096H4.32572L4.49194 5.63766ZM7.48395 5.63766L7.65017 6.14096H8.17194L7.74715 6.45026L7.90869 6.95819L7.47932 6.64421L7.05453 6.95356L7.21612 6.45031L6.7867 6.14096H7.31773L7.48395 5.63766ZM10.4806 5.63766L10.6421 6.14096H11.1732L10.7437 6.45026L10.91 6.95819L10.4805 6.64421L10.0512 6.95356L10.2174 6.45031L9.78797 6.14096H10.3144L10.4806 5.63766ZM13.4726 5.63766L13.6388 6.14096H14.1652L13.7404 6.45026L13.902 6.95819L13.4725 6.64421L13.0478 6.95356L13.2094 6.45031L12.7846 6.14096H13.311L13.4726 5.63766ZM16.4692 5.63766L16.6308 6.14096H17.1618L16.7324 6.45026L16.8986 6.95819L16.4692 6.64421L16.0398 6.95356L16.206 6.45031L15.7766 6.14096H16.3076L16.4692 5.63766ZM2.99594 6.91204L3.15753 7.41533H3.68851L3.25909 7.72463L3.42073 8.22798L2.99594 7.914L2.56652 8.22798L2.72811 7.72005L2.30332 7.4107H2.82976L2.99594 6.91204ZM5.98795 6.91204L6.15417 7.41533H6.68051L6.25109 7.72463L6.41737 8.22798L5.9879 7.914L5.55852 8.22798L5.72475 7.72005L5.29533 7.4107H5.8263L5.98795 6.91204ZM8.98458 6.91204L9.14613 7.41533H9.67715L9.24773 7.72463L9.40932 8.22798L8.98453 7.914L8.55516 8.22798L8.71675 7.72005L8.29196 7.4107H8.81836L8.98458 6.91204ZM11.9766 6.91204L12.1428 7.41533H12.6692L12.2444 7.72463L12.406 8.22798L11.9765 7.914L11.5517 8.22798L11.7134 7.72005L11.284 7.4107H11.8196L11.9766 6.91204ZM14.9732 6.91204L15.1348 7.41533H15.6658L15.2364 7.72463L15.398 8.22798L14.9732 7.914L14.5438 8.22798L14.7054 7.72005L14.2806 7.4107H14.807L14.9732 6.91204ZM1.4953 8.18178L1.66153 8.68971H2.18792L1.76308 8.99901L1.92473 9.49772L1.4953 9.18838L1.07051 9.49767L1.23211 8.99442L0.802734 8.68508H1.33834L1.4953 8.18178ZM4.49194 8.18178L4.65353 8.68971H5.18451L4.75509 8.99901L4.92136 9.49772L4.49189 9.18838L4.06252 9.49767L4.22874 8.99442L3.79932 8.68508H4.32572L4.49194 8.18178ZM7.48395 8.18178L7.65017 8.68971H8.17194L7.74715 8.99901L7.90869 9.49772L7.47932 9.18838L7.05453 9.49767L7.21612 8.99442L6.7867 8.68508H7.31773L7.48395 8.18178ZM10.4806 8.18178L10.6421 8.68971H11.1732L10.7437 8.99901L10.91 9.49772L10.4805 9.18838L10.0512 9.49767L10.2174 8.99442L9.78797 8.68508H10.3144L10.4806 8.18178ZM13.4726 8.18178L13.6388 8.68971H14.1652L13.7404 8.99901L13.902 9.49772L13.4725 9.18838L13.0478 9.49767L13.2094 8.99442L12.7846 8.68508H13.311L13.4726 8.18178ZM16.4692 8.18178L16.6308 8.68971H17.1618L16.7324 8.99901L16.8986 9.49772L16.4692 9.18838L16.0398 9.49767L16.206 8.99442L15.7766 8.68508H16.3076L16.4692 8.18178ZM2.99594 9.45615L3.15753 9.95945H3.68851L3.25909 10.2688L3.42073 10.7767L2.99594 10.4627L2.56652 10.772L2.72811 10.2688L2.30332 9.95945H2.82976L2.99594 9.45615ZM5.98795 9.45615L6.15417 9.95945H6.68051L6.25109 10.2688L6.41737 10.7767L5.9879 10.4627L5.55852 10.772L5.72475 10.2688L5.29533 9.95945H5.8263L5.98795 9.45615ZM8.98458 9.45615L9.14613 9.95945H9.67715L9.24773 10.2688L9.40932 10.7767L8.98453 10.4627L8.55516 10.772L8.71675 10.2688L8.29196 9.95945H8.81836L8.98458 9.45615ZM11.9766 9.45615L12.1428 9.95945H12.6692L12.2444 10.2688L12.406 10.7767L11.9765 10.4627L11.5517 10.772L11.7134 10.2688L11.284 9.95945H11.8196L11.9766 9.45615ZM14.9732 9.45615L15.1348 9.95945H15.6658L15.2364 10.2688L15.398 10.7767L14.9732 10.4627L14.5438 10.772L14.7054 10.2688L14.2806 9.95945H14.807L14.9732 9.45615ZM1.4953 10.7305L1.66153 11.2338H2.18792L1.76308 11.5432L1.92473 12.0465L1.4953 11.7371L1.07051 12.0464L1.23211 11.5385L0.802734 11.2292H1.33834L1.4953 10.7305ZM4.49194 10.7305L4.65353 11.2338H5.18451L4.75509 11.5432L4.92136 12.0465L4.49189 11.7371L4.06252 12.0464L4.22874 11.5385L3.79932 11.2292H4.32572L4.49194 10.7305ZM7.48395 10.7305L7.65017 11.2338H8.17194L7.75636 11.5432L7.91795 12.0465L7.48853 11.7371L7.06374 12.0464L7.22538 11.5385L6.79596 11.2292H7.32694L7.48395 10.7305ZM10.4806 10.7305L10.6421 11.2338H11.1732L10.7437 11.5432L10.91 12.0465L10.4805 11.7371L10.0512 12.0464L10.2174 11.5385L9.78797 11.2292H10.3144L10.4806 10.7305ZM13.4726 10.7305L13.6388 11.2338H14.1652L13.7404 11.5432L13.902 12.0465L13.4725 11.7371L13.0478 12.0464L13.2094 11.5385L12.7846 11.2292H13.311L13.4726 10.7305ZM16.4692 10.7305L16.6308 11.2338H17.1618L16.7324 11.5432L16.8986 12.0465L16.4692 11.7371L16.0398 12.0464L16.206 11.5385L15.7766 11.2292H16.3076L16.4692 10.7305Z" fill="white"/>
</g>
<defs>
<clipPath id="clip0_215_6375">
<rect width="45" height="23.6406" fill="white"/>
</clipPath>
</defs>
</svg>
