<svg width="1734" height="446" viewBox="0 0 1734 446" fill="none" xmlns="http://www.w3.org/2000/svg">
<path d="M1516.49 414.695V88.1431H1589.11V414.695H1516.49ZM1572.46 414.695V350.865H1733.89V414.695H1572.46Z" fill="white"/>
<path d="M1167.88 414.695L1297.39 88.1431H1363.07L1491.19 414.695H1414.41L1316.35 143.648H1342.72L1243.27 414.695H1167.88ZM1241.42 355.49V296.285H1419.5V355.49H1241.42Z" fill="white"/>
<path d="M992.452 295.823V239.393H1062.76C1071.7 239.393 1079.87 237.543 1087.27 233.843C1094.67 230.142 1100.53 224.746 1104.85 217.654C1109.17 210.562 1111.32 201.928 1111.32 191.752C1111.32 181.884 1109.17 173.404 1104.85 166.312C1100.53 159.22 1094.67 153.824 1087.27 150.123C1079.87 146.423 1071.7 144.573 1062.76 144.573H992.452V88.1431H1073.4C1094.06 88.1431 1112.71 92.3059 1129.36 100.632C1146.01 108.957 1159.12 120.983 1168.68 136.71C1178.55 152.128 1183.48 170.475 1183.48 191.752C1183.48 213.028 1178.55 231.53 1168.68 247.256C1159.12 262.674 1146.01 274.7 1129.36 283.334C1112.71 291.66 1094.06 295.823 1073.4 295.823H992.452ZM936.947 414.695V88.1431H1009.57V414.695H936.947Z" fill="white"/>
<path d="M729.423 420.246C704.754 420.246 681.936 415.929 660.967 407.295C640.307 398.661 622.114 386.635 606.388 371.217C590.661 355.799 578.481 337.914 569.847 317.562C561.213 296.902 556.896 274.7 556.896 250.957C556.896 226.905 561.213 204.703 569.847 184.351C578.481 164 590.507 146.269 605.925 131.159C621.343 115.741 639.382 103.87 660.042 95.5439C681.01 86.9098 703.829 82.5928 728.498 82.5928C752.858 82.5928 775.368 86.9098 796.028 95.5439C816.997 103.87 835.19 115.741 850.608 131.159C866.334 146.269 878.514 164.154 887.148 184.814C895.783 205.165 900.1 227.367 900.1 251.419C900.1 275.163 895.783 297.365 887.148 318.025C878.514 338.377 866.488 356.261 851.07 371.679C835.653 386.789 817.459 398.661 796.491 407.295C775.831 415.929 753.475 420.246 729.423 420.246ZM728.498 354.103C747.924 354.103 764.884 349.786 779.377 341.152C794.178 332.518 805.588 320.492 813.605 305.074C821.622 289.347 825.631 271.309 825.631 250.957C825.631 235.539 823.318 221.663 818.693 209.328C814.067 196.686 807.438 185.893 798.804 176.951C790.17 167.7 779.84 160.762 767.814 156.136C756.096 151.203 742.991 148.736 728.498 148.736C709.071 148.736 691.957 153.053 677.156 161.687C662.663 170.013 651.408 181.884 643.391 197.302C635.373 212.412 631.365 230.297 631.365 250.957C631.365 266.375 633.677 280.405 638.303 293.048C642.928 305.691 649.404 316.637 657.729 325.888C666.363 334.83 676.693 341.769 688.719 346.702C700.745 351.636 714.005 354.103 728.498 354.103Z" fill="white"/>
<path d="M513.492 445.105L89.4626 290.968L0.446289 445.105H513.492Z" fill="url(#paint0_linear_642_289)"/>
<path d="M256.969 0.802246L0.446289 445.105H0.683188L341.45 147.121L256.969 0.802246Z" fill="url(#paint1_linear_642_289)"/>
<path d="M256.969 0.802246L256.562 1.51302L330.382 379.003L513.491 445.105L256.969 0.802246Z" fill="url(#paint2_linear_642_289)"/>
<defs>
<linearGradient id="paint0_linear_642_289" x1="56.9023" y1="371.895" x2="530.896" y2="468.689" gradientUnits="userSpaceOnUse">
<stop stop-color="#430098"/>
<stop offset="1" stop-color="#9F1C64"/>
</linearGradient>
<linearGradient id="paint1_linear_642_289" x1="287.025" y1="90.6647" x2="32.1942" y2="440.57" gradientUnits="userSpaceOnUse">
<stop stop-color="#430098"/>
<stop offset="0.53" stop-color="#2C97DA"/>
<stop offset="0.99" stop-color="#00EAE8"/>
</linearGradient>
<linearGradient id="paint2_linear_642_289" x1="361.453" y1="148.948" x2="429.146" y2="443.413" gradientUnits="userSpaceOnUse">
<stop stop-color="#9B6DFE"/>
<stop offset="0.99" stop-color="#321A69"/>
</linearGradient>
</defs>
</svg>
